<svg width="85" height="85" viewBox="0 0 85 85" fill="none" xmlns="http://www.w3.org/2000/svg">
<path d="M71.0813 23.5187H53.125V28.5124H71.1521L71.0813 23.5187ZM67.2917 57.8728C65.9295 58.7754 64.3208 59.2333 62.6875 59.1833C61.6064 59.296 60.5136 59.1843 59.4775 58.8552C58.4415 58.5261 57.4846 57.9867 56.6667 57.2708C55.1544 55.5562 54.3671 53.3213 54.4708 51.0374H77.9167C78.0857 48.6594 77.8825 46.2695 77.3146 43.9541C76.7652 41.7513 75.8038 39.6723 74.4813 37.827C73.15 36.0371 71.4306 34.5719 69.4521 33.5416C67.2508 32.4562 64.8228 31.9099 62.3688 31.9478C60.0607 31.9309 57.7726 32.3765 55.6396 33.2583C53.6864 34.0817 51.9166 35.2856 50.4333 36.7999C48.9543 38.3445 47.809 40.177 47.0688 42.1833C46.2744 44.3492 45.8784 46.6409 45.9 48.9478C45.8636 51.2875 46.2474 53.6147 47.0333 55.8187C47.7009 57.8145 48.7605 59.6568 50.15 61.2374C51.5876 62.7892 53.3544 63.9994 55.3208 64.7791C57.5135 65.6145 59.8456 66.0232 62.1917 65.9833C65.4834 66.0859 68.7333 65.2242 71.5417 63.5041C74.3782 61.4884 76.4204 58.5441 77.3146 55.1812H69.4875C69.0685 56.2937 68.2974 57.2389 67.2917 57.8728ZM55.1438 43.2812C55.4194 42.3982 55.877 41.5827 56.487 40.8873C57.097 40.1919 57.8459 39.632 58.6854 39.2437C59.7974 38.7432 61.0082 38.501 62.2271 38.5353C63.1076 38.4601 63.994 38.5763 64.8254 38.8758C65.6568 39.1754 66.4135 39.6512 67.0438 40.2708C68.2472 41.7439 69.0194 43.5213 69.275 45.4062H54.5771C54.6344 44.6864 54.765 43.9744 54.9667 43.2812H55.1438ZM36.4083 41.5812C38.2109 40.8306 39.7772 39.6069 40.9417 38.0395C42.0121 36.3749 42.5438 34.4211 42.4646 32.4437C42.534 30.6404 42.1824 28.8457 41.4375 27.202C40.8117 25.778 39.8072 24.5529 38.5333 23.6603C37.1827 22.7323 35.649 22.1044 34.0354 21.8187C32.1258 21.4182 30.1781 21.2281 28.2271 21.252H7.08334V65.8062H28.6875C30.6591 65.8076 32.6229 65.5577 34.5313 65.0624C36.3401 64.5945 38.0539 63.8155 39.5958 62.7603C41.0895 61.7252 42.3058 60.3386 43.1375 58.7228C44.058 56.9158 44.5087 54.9061 44.4479 52.8791C44.515 50.3671 43.8104 47.895 42.4292 45.7958C40.9438 43.6847 38.7406 42.1865 36.2313 41.5812H36.4083ZM16.8938 28.8666H26.0667C26.9094 28.8655 27.7507 28.9366 28.5813 29.0791C29.3461 29.1924 30.0806 29.4573 30.7417 29.8583C31.3804 30.2196 31.898 30.7618 32.2292 31.4166C32.6394 32.2018 32.8349 33.0815 32.7958 33.9666C32.8618 34.7289 32.7453 35.4959 32.4558 36.2042C32.1663 36.9125 31.7123 37.5416 31.1313 38.0395C29.8638 38.9109 28.3471 39.346 26.8104 39.2791H16.8938V28.8666ZM34.0354 55.2166C33.6716 55.9384 33.1213 56.5498 32.4417 56.9874C31.7344 57.4273 30.9551 57.739 30.1396 57.9083C29.2331 58.1112 28.3059 58.2063 27.3771 58.1916H16.7521V45.9728H27.3771C29.2004 45.893 31.001 46.4021 32.5125 47.4249C33.1954 48.0377 33.7244 48.8027 34.0566 49.658C34.3889 50.5133 34.5151 51.4347 34.425 52.3478C34.5208 53.3214 34.3873 54.3038 34.0354 55.2166Z" fill="white"/>
</svg>
