<?xml version="1.0" encoding="UTF-8"?>
<svg width="64px" height="63px" viewBox="0 0 64 63" xmlns="http://www.w3.org/2000/svg" xmlns:xlink="http://www.w3.org/1999/xlink" version="1.1">
 <!-- Generated by Pixelmator Pro 2.1.4 -->
 <path id="Path" d="M31.9 0 C14.286 0 0 14.283 0 31.9 0 45.994 9.139 57.952 21.817 62.17 23.409 62.466 23.925 61.477 23.925 60.637 L23.925 54.698 C15.051 56.628 13.204 50.934 13.204 50.934 11.752 47.247 9.66 46.266 9.66 46.266 6.765 44.285 9.881 44.328 9.881 44.328 13.084 44.551 14.77 47.616 14.77 47.616 17.614 52.491 22.232 51.083 24.053 50.266 24.337 48.206 25.164 46.797 26.078 46.002 18.994 45.192 11.545 42.456 11.545 30.236 11.545 26.751 12.792 23.906 14.831 21.673 14.501 20.868 13.409 17.622 15.142 13.231 15.142 13.231 17.821 12.375 23.917 16.5 26.461 15.793 29.189 15.44 31.9 15.426 34.611 15.44 37.342 15.793 39.891 16.5 45.981 12.375 48.655 13.231 48.655 13.231 50.391 17.625 49.299 20.871 48.969 21.673 51.016 23.906 52.252 26.753 52.252 30.236 52.252 42.488 44.79 45.186 37.687 45.976 38.83 46.965 39.875 48.905 39.875 51.883 L39.875 60.637 C39.875 61.485 40.385 62.481 42.004 62.168 54.671 57.944 63.8 45.989 63.8 31.9 63.8 14.283 49.517 0 31.9 0 Z" fill="#ffffff" fill-opacity="1" stroke="none"/>
</svg>
