<svg width="85" height="85" viewBox="0 0 85 85" fill="none" xmlns="http://www.w3.org/2000/svg">
<path d="M29.1125 10.625H55.8875C66.0875 10.625 74.375 18.9125 74.375 29.1125V55.8875C74.375 60.7907 72.4272 65.4931 68.9601 68.9601C65.4931 72.4272 60.7907 74.375 55.8875 74.375H29.1125C18.9125 74.375 10.625 66.0875 10.625 55.8875V29.1125C10.625 24.2093 12.5728 19.5069 16.0399 16.0399C19.5069 12.5728 24.2093 10.625 29.1125 10.625ZM28.475 17C25.4316 17 22.5129 18.209 20.361 20.361C18.209 22.5129 17 25.4316 17 28.475V56.525C17 62.8681 22.1319 68 28.475 68H56.525C59.5684 68 62.4871 66.791 64.6391 64.6391C66.791 62.4871 68 59.5684 68 56.525V28.475C68 22.1319 62.8681 17 56.525 17H28.475ZM59.2344 21.7812C60.2911 21.7812 61.3045 22.201 62.0518 22.9482C62.799 23.6955 63.2188 24.7089 63.2188 25.7656C63.2188 26.8223 62.799 27.8358 62.0518 28.583C61.3045 29.3302 60.2911 29.75 59.2344 29.75C58.1777 29.75 57.1642 29.3302 56.417 28.583C55.6698 27.8358 55.25 26.8223 55.25 25.7656C55.25 24.7089 55.6698 23.6955 56.417 22.9482C57.1642 22.201 58.1777 21.7812 59.2344 21.7812ZM42.5 26.5625C46.7269 26.5625 50.7807 28.2416 53.7695 31.2305C56.7584 34.2193 58.4375 38.2731 58.4375 42.5C58.4375 46.7269 56.7584 50.7807 53.7695 53.7695C50.7807 56.7584 46.7269 58.4375 42.5 58.4375C38.2731 58.4375 34.2193 56.7584 31.2305 53.7695C28.2416 50.7807 26.5625 46.7269 26.5625 42.5C26.5625 38.2731 28.2416 34.2193 31.2305 31.2305C34.2193 28.2416 38.2731 26.5625 42.5 26.5625ZM42.5 32.9375C39.9639 32.9375 37.5316 33.945 35.7383 35.7383C33.945 37.5316 32.9375 39.9639 32.9375 42.5C32.9375 45.0361 33.945 47.4684 35.7383 49.2617C37.5316 51.055 39.9639 52.0625 42.5 52.0625C45.0361 52.0625 47.4684 51.055 49.2617 49.2617C51.055 47.4684 52.0625 45.0361 52.0625 42.5C52.0625 39.9639 51.055 37.5316 49.2617 35.7383C47.4684 33.945 45.0361 32.9375 42.5 32.9375Z" fill="#FFFCFC"/>
</svg>
