<svg width="85" height="85" viewBox="0 0 85 85" fill="none" xmlns="http://www.w3.org/2000/svg">
<path d="M67.2917 10.625C69.1703 10.625 70.972 11.3713 72.3003 12.6997C73.6287 14.028 74.375 15.8297 74.375 17.7083V67.2917C74.375 69.1703 73.6287 70.972 72.3003 72.3003C70.972 73.6287 69.1703 74.375 67.2917 74.375H17.7083C15.8297 74.375 14.028 73.6287 12.6997 72.3003C11.3713 70.972 10.625 69.1703 10.625 67.2917V17.7083C10.625 15.8297 11.3713 14.028 12.6997 12.6997C14.028 11.3713 15.8297 10.625 17.7083 10.625H67.2917ZM65.5208 65.5208V46.75C65.5208 43.6879 64.3044 40.7511 62.1391 38.5859C59.9739 36.4206 57.0371 35.2042 53.975 35.2042C50.9646 35.2042 47.4583 37.0458 45.7583 39.8083V35.8771H35.8771V65.5208H45.7583V48.0604C45.7583 45.3333 47.9542 43.1021 50.6813 43.1021C51.9963 43.1021 53.2575 43.6245 54.1873 44.5543C55.1172 45.4842 55.6396 46.7454 55.6396 48.0604V65.5208H65.5208ZM24.3667 30.3167C25.9447 30.3167 27.4581 29.6898 28.574 28.574C29.6898 27.4581 30.3167 25.9447 30.3167 24.3667C30.3167 21.0729 27.6604 18.3813 24.3667 18.3813C22.7792 18.3813 21.2568 19.0119 20.1343 20.1343C19.0119 21.2568 18.3813 22.7792 18.3813 24.3667C18.3813 27.6604 21.0729 30.3167 24.3667 30.3167ZM29.2896 65.5208V35.8771H19.4792V65.5208H29.2896Z" fill="#FFFCFC"/>
</svg>
